<svg width="26" height="13" viewBox="0 0 26 13" fill="none" xmlns="http://www.w3.org/2000/svg">
<path d="M25.7021 5.61026C25.7018 5.60995 25.7015 5.6096 25.7012 5.60929L20.3944 0.297459C19.9968 -0.100469 19.3537 -0.0989874 18.958 0.300932C18.5623 0.700801 18.5638 1.34757 18.9614 1.74555L22.5244 5.31183H1.01562C0.454695 5.31183 0 5.76916 0 6.33333C0 6.89751 0.454695 7.35484 1.01562 7.35484H22.5244L18.9615 10.9211C18.5639 11.3191 18.5624 11.9659 18.9581 12.3657C19.3538 12.7657 19.9969 12.7671 20.3944 12.3692L25.7012 7.05738C25.7015 7.05707 25.7018 7.05671 25.7022 7.05641C26.0999 6.6571 26.0987 6.00824 25.7021 5.61026Z" fill="white"/>
</svg>
