<svg width="24" height="24" viewBox="0 0 24 24" fill="none" xmlns="http://www.w3.org/2000/svg">
<path id="Dribbble" fill-rule="evenodd" clip-rule="evenodd" d="M17.7273 20.4993C17.6229 19.8812 17.0767 16.8729 15.7319 13.1803C19.0411 12.6512 21.9072 13.5585 22.1189 13.6276C21.6631 16.4835 20.0275 18.9457 17.7273 20.4993ZM12.0007 22.2489C9.51985 22.2489 7.24502 21.367 5.47116 19.8996C5.60663 20.0096 5.70118 20.0788 5.70118 20.0788C5.70118 20.0788 7.66555 15.7949 13.7435 13.677C13.7661 13.6685 13.7901 13.6629 13.8127 13.6558C15.2549 17.4021 15.849 20.5402 16.0014 21.4362C14.7723 21.9583 13.4189 22.2489 12.0007 22.2489ZM1.75128 11.9993C1.75128 11.8906 1.75692 11.7834 1.75975 11.6762C1.94179 11.6804 7.00512 11.7947 12.2815 10.2158C12.5751 10.7901 12.8559 11.3756 13.1127 11.9584C12.9772 11.9951 12.8432 12.036 12.7091 12.0811C7.17869 13.8675 4.37326 18.8427 4.37326 18.8427C4.37326 18.8427 4.37749 18.847 4.37749 18.8484C2.74475 17.0324 1.75128 14.6323 1.75128 11.9993ZM7.62745 2.73314C7.76433 2.91516 9.65955 5.48463 11.4334 8.63684C6.51261 9.94485 2.24096 9.89264 1.97142 9.88841C2.63609 6.71362 4.76839 4.08207 7.62745 2.73314ZM9.54525 2.05021C9.54525 2.05162 9.54383 2.05303 9.54383 2.05303C9.54383 2.05303 9.53113 2.05585 9.51279 2.05867C9.52408 2.05585 9.53396 2.05444 9.54525 2.05021ZM18.7687 4.31066C18.7433 4.34876 17.2842 6.57111 13.4147 8.02022C11.6634 4.80169 9.73858 2.24493 9.58476 2.04174C10.3595 1.85408 11.1681 1.75248 12.0007 1.75248C14.5945 1.75248 16.9638 2.72044 18.7687 4.31066ZM22.2459 11.8977C22.0977 11.8652 18.629 11.1188 15.1081 11.5619C15.0347 11.3869 14.9628 11.2105 14.8866 11.0342C14.6735 10.5318 14.4435 10.0352 14.205 9.54695C18.2522 7.89464 19.8949 5.5199 19.9146 5.49168C21.3512 7.23711 22.2219 9.46652 22.2459 11.8977ZM23.7573 9.58504C23.5992 8.81463 23.3621 8.05409 23.0559 7.32883C22.7567 6.61767 22.3828 5.93192 21.9496 5.29132C21.522 4.65636 21.028 4.05809 20.4862 3.51626C19.9428 2.97301 19.3459 2.48057 18.7095 2.05162C18.0688 1.61703 17.383 1.24593 16.6717 0.943971C15.9464 0.639191 15.1872 0.40214 14.4167 0.245517C13.6264 0.08325 12.8135 0 12.0007 0C11.1865 0 10.3736 0.08325 9.58335 0.245517C8.81284 0.40214 8.05363 0.639191 7.32828 0.943971C6.61704 1.24593 5.9312 1.61703 5.28912 2.05162C4.65408 2.48057 4.05715 2.97301 3.51385 3.51626C2.97195 4.05809 2.47945 4.65636 2.05045 5.29132C1.61722 5.93192 1.24325 6.61767 0.944082 7.32883C0.636444 8.05409 0.400776 8.81463 0.242724 9.58504C0.0818487 10.3738 0 11.1865 0 11.9993C0 12.8149 0.0818487 13.6276 0.242724 14.4178C0.400776 15.1882 0.636444 15.9473 0.944082 16.6712C1.24325 17.3823 1.61722 18.0709 2.05045 18.7115C2.47945 19.3465 2.97195 19.9419 3.51385 20.4866C4.05715 21.0284 4.65408 21.5194 5.28912 21.9498C5.9312 22.383 6.61704 22.7555 7.32828 23.056C8.05363 23.3636 8.81284 23.5979 9.58335 23.7545C10.3736 23.9182 11.1865 24 12.0007 24C12.8135 24 13.6264 23.9182 14.4167 23.7545C15.1872 23.5979 15.9464 23.3636 16.6717 23.056C17.383 22.7555 18.0688 22.383 18.7095 21.9498C19.3459 21.5194 19.9428 21.0284 20.4862 20.4866C21.028 19.9419 21.522 19.3465 21.9496 18.7115C22.3828 18.0709 22.7567 17.3823 23.0559 16.6712C23.3621 15.9473 23.5992 15.1882 23.7573 14.4178C23.9182 13.6276 24 12.8149 24 11.9993C24 11.1865 23.9182 10.3738 23.7573 9.58504Z" fill="#C3CEE2"/>
</svg>
