<svg width="24" height="24" viewBox="0 0 24 24" fill="none" xmlns="http://www.w3.org/2000/svg">
<path id="Github" fill-rule="evenodd" clip-rule="evenodd" d="M11.9993 0C5.373 0 0 5.39355 0 12.0483C0 17.3703 3.438 21.8859 8.20725 23.4792C8.80725 23.5899 9.02625 23.2179 9.02625 22.8987C9.02625 22.6125 9.01575 21.855 9.00975 20.8498C5.6715 21.5779 4.96725 19.2347 4.96725 19.2347C4.422 17.8432 3.63525 17.4727 3.63525 17.4727C2.5455 16.725 3.71775 16.7401 3.71775 16.7401C4.9215 16.8252 5.55525 17.9818 5.55525 17.9818C6.62625 19.8228 8.364 19.2912 9.048 18.9825C9.15675 18.2039 9.46725 17.673 9.81 17.3718C7.14525 17.0676 4.344 16.0346 4.344 11.4181C4.344 10.1026 4.81125 9.02739 5.57925 8.18482C5.4555 7.87986 5.04375 6.65553 5.69625 4.99673C5.69625 4.99673 6.70425 4.67295 8.99625 6.23161C9.954 5.9643 10.98 5.83102 12.0007 5.82575C13.02 5.83102 14.0468 5.9643 15.0052 6.23161C17.2957 4.67295 18.3015 4.99673 18.3015 4.99673C18.9563 6.65553 18.5445 7.87986 18.4207 8.18482C19.1903 9.02739 19.6545 10.1026 19.6545 11.4181C19.6545 16.0459 16.8487 17.0646 14.1757 17.3628C14.6062 17.7348 14.9902 18.4697 14.9902 19.5939C14.9902 21.2045 14.9753 22.5034 14.9753 22.8987C14.9753 23.2209 15.1912 23.5959 15.8003 23.4777C20.565 21.8814 24 17.3688 24 12.0483C24 5.39355 18.627 0 11.9993 0Z" fill="#C3CEE2"/>
</svg>
