<svg width="24" height="24" viewBox="0 0 24 24" fill="none" xmlns="http://www.w3.org/2000/svg">
<path id="LinkedIn" fill-rule="evenodd" clip-rule="evenodd" d="M24 24H18.6957V15.563C18.6957 13.3547 17.8659 11.8471 16.0414 11.8471C14.6458 11.8471 13.8697 12.8644 13.5085 13.8449C13.373 14.1968 13.3942 14.6871 13.3942 15.1773V24H8.13923C8.13923 24 8.20696 9.05475 8.13923 7.69623H13.3942V10.255C13.7046 9.1362 15.3838 7.53948 18.0635 7.53948C21.3881 7.53948 24 9.88461 24 14.9345V24ZM2.82502 5.65691H2.79116C1.09784 5.65691 0 4.41058 0 2.83076C0 1.22021 1.13029 0 2.85748 0C4.58325 0 5.6444 1.21714 5.67827 2.82615C5.67827 4.40597 4.58325 5.65691 2.82502 5.65691ZM0.605362 7.69623H5.28316V24H0.605362V7.69623Z" fill="#C3CEE2"/>
</svg>
