<svg width="24" height="24" viewBox="0 0 24 24" fill="none" xmlns="http://www.w3.org/2000/svg">
<path id="Pinterest" fill-rule="evenodd" clip-rule="evenodd" d="M12.0007 0C5.37379 0 0 5.37238 0 12.0007C0 16.913 2.95502 21.1353 7.18434 22.991C7.15047 22.1542 7.17869 21.1466 7.39178 20.235C7.62321 19.2612 8.93561 13.6969 8.93561 13.6969C8.93561 13.6969 8.55318 12.9307 8.55318 11.7975C8.55318 10.0194 9.58476 8.69148 10.8675 8.69148C11.9584 8.69148 12.4862 9.51138 12.4862 10.4936C12.4862 11.5901 11.7862 13.2313 11.4264 14.7511C11.1258 16.0254 12.0642 17.0626 13.3202 17.0626C15.5936 17.0626 17.1247 14.1429 17.1247 10.6827C17.1247 8.05363 15.3537 6.08502 12.1319 6.08502C8.4925 6.08502 6.22473 8.79873 6.22473 11.83C6.22473 12.8771 6.53237 13.6137 7.01499 14.1838C7.23796 14.4477 7.2676 14.5521 7.18716 14.8541C7.13071 15.0729 6.99806 15.6063 6.94302 15.8165C6.86259 16.12 6.61704 16.23 6.34327 16.1171C4.66537 15.4327 3.88499 13.5968 3.88499 11.5322C3.88499 8.12418 6.75957 4.03457 12.4608 4.03457C17.0429 4.03457 20.0586 7.35227 20.0586 10.9099C20.0586 15.6176 17.4422 19.1342 13.5826 19.1342C12.2886 19.1342 11.0693 18.4343 10.6516 17.6398C10.6516 17.6398 9.95449 20.4043 9.80773 20.9377C9.55371 21.8621 9.05557 22.7878 8.59975 23.5075C9.67931 23.8264 10.8195 24 12.0007 24C18.6276 24 24 18.6276 24 12.0007C24 5.37238 18.6276 0 12.0007 0Z" fill="#C3CEE2"/>
</svg>
